<svg id="Capa_1" data-name="Capa 1" xmlns="http://www.w3.org/2000/svg" xmlns:xlink="http://www.w3.org/1999/xlink" viewBox="0 0 270 270"><defs><style>.cls-1{fill:none;}.cls-2{clip-path:url(#clip-path);}.cls-3{fill:#020202;}</style><clipPath id="clip-path" transform="translate(-122 -113)"><circle class="cls-1" cx="302" cy="248" r="90"/></clipPath></defs><rect y="180" width="45" height="45"/><rect y="135" width="45" height="45"/><rect y="225" width="45" height="45"/><rect y="45" width="45" height="45"/><rect width="45" height="45"/><rect y="90" width="45" height="45"/><rect x="45" width="45" height="45"/><rect x="45" y="135" width="45" height="45"/><rect x="90" y="45" width="45" height="45"/><rect x="135" y="45" width="45" height="45"/><rect x="90" y="135" width="45" height="45"/><rect x="135" y="135" width="45" height="45"/><g class="cls-2"><rect class="cls-3" x="180" y="45" width="45" height="45"/><rect class="cls-3" x="225" y="45" width="45" height="45"/><rect class="cls-3" x="180" y="180" width="45" height="45"/><rect class="cls-3" x="225" y="180" width="45" height="45"/><rect class="cls-3" x="225" y="90" width="45" height="45"/><rect class="cls-3" x="225" y="135" width="45" height="45"/></g></svg>